<svg xmlns="http://www.w3.org/2000/svg" viewBox="0 0 400 1008"><defs><style>.cls-1{fill:#907f40}.cls-2{fill:#2d3c3c}.cls-3{fill:#f4c245}</style></defs><title>drop</title><g id="Layer_2" data-name="Layer 2"><g id="Layer_1-2" data-name="Layer 1"><path class="cls-1" d="M152 316l72-144v216l-72-72z"/><path class="cls-2" d="M72 476l72-144v216l-72-72z"/><path class="cls-3" d="M252 432L152 632V332l100 100z"/><path class="cls-1" d="M161 669l-25 50v-75l25 25zm-42-58l25-50v75l-25-25z"/><path class="cls-3" d="M136 552l-48 96V504l48 48zm48-320L84 432V132l100 100z"/><path class="cls-2" d="M108 676l20-40v60l-20-20zm119-281l25-50v75l-25-25z"/><path class="cls-3" d="M120 784l24-48v72l-24-24z"/><path class="cls-2" d="M164 640l36-72v108l-36-36z"/><path class="cls-3" d="M156 720l24-48v72l-24-24zm180-568L236 352V52l100 100z"/><path class="cls-2" d="M112 144L184 0v216l-72-72z"/><path class="cls-1" d="M0 220L72 76v216L0 220z"/><path class="cls-2" d="M72 308l-48 96V260l48 48z"/><path class="cls-1" d="M36 404l36-72v108l-36-36zm252 6l-25 50v-75l25 25z"/><path class="cls-3" d="M272 472l24-48v72l-24-24z"/><path class="cls-1" d="M172 798l-18 36v-54l18 18z"/><path class="cls-2" d="M280 512l-18 36v-54l18 18z"/><path class="cls-3" d="M268 372l48-96v144l-48-48zm-92 500l12-24v36l-12-12z"/><path class="cls-2" d="M148 912l-12 24v-36l12 12z"/><path class="cls-1" d="M308 616l12-24v36l-12-12z"/><path class="cls-3" d="M296 656l-12 24v-36l12 12z"/><path class="cls-2" d="M313.33 693.33l-8 16v-24l8 8z"/><path class="cls-3" d="M280 564l24-48v72l-24-24z"/><path class="cls-1" d="M341 466l-25 50v-75l25 25z"/><path class="cls-3" d="M180 964l-12 24v-36l12 12z"/><path class="cls-2" d="M160 992l-8 16v-24l8 8z"/><path class="cls-1" d="M260 588l-48 96V540l48 48z"/><path class="cls-3" d="M228 692l24-48v72l-24-24z"/><path class="cls-2" d="M236 724l-24 48v-72l24 24zm164-432l-72 144V220l72 72z"/><path class="cls-3" d="M260 768l-12 24v-36l12 12z"/><path class="cls-2" d="M240 820l-8 16v-24l8 8z"/><path class="cls-1" d="M220 784l12-24v36l-12-12zm-4 72l8-16v24l-8-8z"/><path class="cls-3" d="M262 894l-8 16v-24l8 8z"/><path class="cls-2" d="M292 780l8-16v24l-8-8z"/></g></g></svg>